<svg xmlns="http://www.w3.org/2000/svg" viewBox="0 0 612 254"><defs><linearGradient id="a" gradientUnits="userSpaceOnUse" x1="0" y1="60.1" x2="0" y2="299.11" gradientTransform="rotate(-45.01)"><stop offset="0" stop-color="#00B0FF"/><stop offset=".17" stop-color="#00AEFF"/><stop offset=".5" stop-color="#955FF9"/><stop offset=".76" stop-color="#E87353"/><stop offset="1" stop-color="#FF8900"/></linearGradient></defs><path d="M0 85 85 0l169 169-85 85L0 85z" fill="url(#a)"/><path d="M84 85h86v84H84V85z"/><g><path d="M560 83v83h23v-30s-.94-30 27-30V80.99s-19.93-.83-27 19.01V83h-23zM501 80.99c24.85 0 45 19.48 45 43.5 0 24.03-20.15 43.51-45 43.51s-45-19.48-45-43.5c0-24.03 20.15-43.51 45-43.51zm0 20.01c-12.15 0-22 10.52-22 23.5s9.85 23.5 22 23.5 22-10.52 22-23.5-9.85-23.5-22-23.5zM395 83v20h10v41s-.87 25.76 24 23c18-2 19-5 19-5v-19s-19 11-19-5v-35h19V83h-19V62h-24v21h-10zM298 57h23v48l44-48h29l-43 46 45 63h-28l-34-46-12 13v33h-24V57z"/></g></svg>