<svg xmlns="http://www.w3.org/2000/svg" width="195.969" height="138" viewBox="0 0 195.969 138">
  <defs>
    <style>
      .cls-1 {
        fill: #2e2e2e;
        fill-rule: evenodd;
      }
    </style>
  </defs>
  <path id="NilsenSolutionsColor.svg" class="cls-1" d="M634.406,371.73c1.133,1.117,1.646,2.357,1.083,3.169-0.828,1.294-4.011,1.168-6.681-.383-0.345-.222-0.663-0.449-0.959-0.678-2.776.932-5.563,1.825-8.347,2.708a25.857,25.857,0,0,0-5.276,3.7c-1.5,1.654-7.665,3.822-13.215,6.041-0.295.117-.586,0.235-0.877,0.352q2.106,7.354,4.218,14.716a5.566,5.566,0,0,1-1.081,4.939,6.385,6.385,0,0,1,3.811,4.261q0.843,3.594,1.685,7.173a6.023,6.023,0,0,1-1.468,5.286c0.319,2.659.671,5.29,1.07,7.868,10.567-5.776,20.246-11.067,23.989-13.132,6.882-3.716,12.139.422,11.583,8.244,0,0.016,0,.033,0,0.048s0,0.037,0,.053c-0.616,7.362-5.992,13.862-11.373,16.091-5.613,2.326-27.745,10.946-40.67,17.724-12.976,6.351-33.423,19.914-39.051,23.8a27.882,27.882,0,0,1-9.888,3.835q-0.346.065-.7,0.122t-0.7.1q-0.7.1-1.4,0.154a23.449,23.449,0,0,1-2.773.069,16.683,16.683,0,0,1-5.172-.954h0l-0.044-.018-0.043-.015h0c-3.34-1.285-4.919-3.626-4.728-6.2,0.012-.161.03-0.322,0.056-0.484s0.057-.326.1-0.489a7.022,7.022,0,0,1,.315-0.985,8.915,8.915,0,0,1,1.115-1.969,14.785,14.785,0,0,1,4.152-3.681c3.5-2.211,11.285-6.824,20.18-11.946a7.924,7.924,0,0,1,4.151-8.217l0.318-.167c0.229-.12.46-0.226,0.693-0.32,0.032-.222.069-0.446,0.123-0.671q2.205-9.166,4.231-18.342a7.409,7.409,0,0,1,.665-1.817,5.627,5.627,0,0,1,.129-1.75q-0.987-4.586-2.041-9.215a43.625,43.625,0,0,1-.677-5.147c0.065-6.567.2-13.15,0.35-19.725,0,0,.5-6.789,3.624-9.617a7.472,7.472,0,0,1,4.97-4.033q3.49-.942,7-1.9c-2.44.01-4.88,0.021-7.315,0.02a5.744,5.744,0,0,1-5.672-5.49q-0.386-9.852-.87-19.6A5.087,5.087,0,0,1,568.43,350q10.251,0.209,20.347.14a5.441,5.441,0,0,1,5.656,5.241c0.059,6.248.142,12.567,0.237,18.917,1.468-.772,3.085-1.531,4.788-2.24,4.43-1.9,9.375-3.654,11.8-4.493q2.481-1.2,4.966-2.417a41.877,41.877,0,0,1,4.216-1.433q2.615-.641,5.229-1.313a12.248,12.248,0,0,1,8.672-3.662c5.245-.029,9.759,3.138,9.226,6.871C643.183,368.9,639.082,371.664,634.406,371.73Zm-55.778,67.383c0.056,0.043.114,0.086,0.169,0.131,0.146,0.119.287,0.247,0.422,0.38,0.043,0.045.088,0.086,0.131,0.13,0.133,0.137.256,0.28,0.377,0.43,0.041,0.049.082,0.1,0.122,0.151,0.109,0.141.209,0.289,0.307,0.442,0.044,0.069.088,0.138,0.13,0.211,0.08,0.136.155,0.277,0.225,0.421,0.048,0.1.1,0.2,0.138,0.3,0.054,0.124.1,0.252,0.151,0.384s0.088,0.256.127,0.386c0.018,0.062.042,0.121,0.059,0.186l-0.006,0a7.806,7.806,0,0,1,.2,2.844,0,0,0,0,0,0,0c-0.008.072-.021,0.149-0.032,0.223,0.719-.381,1.425-0.754,2.1-1.109l4.775-2.616c0-.12-0.013-0.239-0.01-0.362,0.014-.509.026-1.02,0.039-1.531a6.243,6.243,0,0,1,2.526-4.81c-0.271-2.08-.548-4.177-0.827-6.276q-1.309.3-2.613,0.608a3.909,3.909,0,0,1-.739.875q-3.731,3.283-7.449,6.609c-0.148.634-.3,1.265-0.448,1.9C578.544,439.053,578.588,439.081,578.628,439.113Zm11.958-81.895a3.524,3.524,0,0,0-3.632-3.386q-8.2.05-16.479-.081a3.3,3.3,0,0,0-3.481,3.4q0.332,7.917.618,15.917a3.673,3.673,0,0,0,3.64,3.509q8.046,0.01,16.106-.077a3.483,3.483,0,0,0,3.469-3.515Q590.7,365.054,590.586,357.218Zm-3.929,17.068q-2.34.024-4.68,0.038a1.816,1.816,0,0,1-1.831-1.752A1.738,1.738,0,0,1,581.9,370.8q2.346-.012,4.691-0.034a1.792,1.792,0,0,1,1.825,1.738A1.76,1.76,0,0,1,586.657,374.286ZM583.923,360.2q-6.126.025-12.279-.037a1.9,1.9,0,0,1-1.885-1.775,1.687,1.687,0,0,1,1.763-1.729q6.186,0.075,12.331.06a1.809,1.809,0,0,1,1.848,1.731A1.749,1.749,0,0,1,583.923,360.2Zm-12.186,2.234q3.765,0.033,7.521.035a1.83,1.83,0,0,1,1.849,1.749,1.734,1.734,0,0,1-1.762,1.756q-3.743,0-7.491-.021a1.879,1.879,0,0,1-1.868-1.775A1.694,1.694,0,0,1,571.737,362.436Zm-24.36,54.114c-0.088.476-.219,0.953-0.306,1.429-0.219,1.124-.481,2.29-0.657,3.368a45.642,45.642,0,0,0-.853,9.026c-0.484.254-1.143,0.462-1.45,0.63-0.572.208-.879,0.248-1.494,0.455-0.878.289-1.625,0.493-2.547,0.78-0.289-1.865-.106-2.88-0.4-5.043a22.375,22.375,0,0,0-.592-3.05c-0.17-.8-0.339-1.777-0.553-2.579a14.816,14.816,0,0,0-1.331-3.447q-0.2.827-.4,1.653c-0.487,1.99-.716,3.973-1.167,6-0.407,1.768-.729,3.574-1.107,5.83-0.612.121-1.269,0.283-1.968,0.4-1.049.158-2.1,0.274-3.143,0.39a9.6,9.6,0,0,1,.377-1.861c0.1-.446,1.823-6.615,1.954-7.293,0.406-1.634.851-3.271,1.207-4.826,0.133-.5.18-1.008,0.312-1.513,0.314-1.889.625-3.82,0.848-5.7,0.089-.712.135-1.38,0.224-2.091,0-.208.045-0.584,0.09-0.959,0.688-.321,1.461-0.522,2.107-0.76,1.291-.434,2.8-0.757,4.053-1.069a46.025,46.025,0,0,0,.435,5.1c0.086,1.142.3,2.283,0.476,3.385,0.173,0.719.259,1.313,0.519,2.374a8.335,8.335,0,0,1,.433,1.228c0.306-1.115.481-1.888,0.655-2.7s0.349-1.76.652-3.094c0.261-1.29.521-2.624,0.824-3.962,0.13-.56.69-4.262,0.993-5.092,0.785-.042,1.572-0.127,2.448-0.217a23.784,23.784,0,0,1,2.5-.3c-0.661,2.2-1.1,4.386-1.579,6.609C548.511,411.862,548.032,414.122,547.377,416.55Zm-18.095-7.7c-2.1.5-4.837,1.209-7.321,1.816a5.745,5.745,0,0,0-.186.814c-0.461,1.834-1.02,4.287-1.482,6.09-0.048.287-.1,0.492-0.143,0.737,0.778-.176,1.511-0.312,2.288-0.49,1.6-.357,3.409-0.722,5.048-1.047a26.6,26.6,0,0,1-.831,4.771c-0.866.176-1.733,0.351-2.295,0.44-1.3.22-2.641,0.4-3.983,0.658a10.994,10.994,0,0,0-1.561.383c-0.231.819-.462,1.638-0.693,2.415-0.141.613-.282,1.185-0.379,1.756,1.695-.372,3.084-0.623,4.692-0.958,1.824-.377,3.91-0.884,5.692-1.227-0.187,1.08-.468,2.7-0.93,4.475-0.7.123-1.612,0.286-1.96,0.367-2.179.489-4.353,0.729-6.488,1.294-0.654.16-2.087,0.319-4.479,0.758-0.609.119-1.436,0.319-2.349,0.477,0.1-.643.246-1.328,0.39-2.014,0.1-.444.279-0.889,0.375-1.334,0.7-2.185,1.482-4.627,2.047-6.866,0.421-1.507.84-2.973,1.218-4.477a27.059,27.059,0,0,0,.621-2.76c0.192-.851.526-2.266,0.717-3.072-0.515.134-1.117,0.311-1.673,0.4a18.373,18.373,0,0,1,.728-4.469c0.341-.092.6-0.22,0.855-0.308,0.725-.186,1.194-0.323,1.917-0.472,0.682-.186,1.277-0.33,1.958-0.479,0.808-.194,1.616-0.39,2.425-0.628,2.211-.538,6.381-1.769,8.171-2.038a31.943,31.943,0,0,1-.548,4.62C530.524,408.6,529.882,408.705,529.282,408.852Zm-18.868,7.321a27.973,27.973,0,0,1-4.306-.65c0.231-.481,1.084-2.632,1.225-2.949a6.312,6.312,0,0,0,.375-2.792c-0.272-1.35-4.977,2.715-5.51,3.979-1.423,3.13.11,3.435,2.792,5.563a27.6,27.6,0,0,1,2.78,2.06,11.08,11.08,0,0,1,2.065,1.837,3.544,3.544,0,0,1,.743,3.27c-0.612,2.268-3.039,4.4-5.615,5.481a12.792,12.792,0,0,1-4,.839,11.107,11.107,0,0,1-4.7-.552,7.576,7.576,0,0,1-1.278-.914,4.537,4.537,0,0,1-1.87-3.314,6.5,6.5,0,0,1,.477-3.163,20.639,20.639,0,0,1,3.772-.332l1.253,0c-0.245,1-.41,2.326-0.075,2.765a4.25,4.25,0,0,0,3.17,1.194,5.07,5.07,0,0,0,3.269-1.093c1.542-1.253-1.74-3.01-3.092-3.963-1.688-1.314-3.007-1.906-4.248-3.375-1.2-1.349-1.15-3.61-.673-5.419a8.08,8.08,0,0,1,.872-1.964c2.073-3.418,6.794-7.474,11.327-7.645a3.484,3.484,0,0,1,2.615.672,2.474,2.474,0,0,1,.824,1.4c0.33,1.233-.115,2.977-0.378,4.45A17.6,17.6,0,0,1,510.414,416.173Zm-16.353,22.348c-0.247,1.026-.489,1.745-0.7,2.486-0.242.786-.486,1.8-0.728,2.757-0.162.616-.322,1.207-0.456,1.75-0.509,1.988-.679,3.457-1.082,5.379a13.753,13.753,0,0,0-.144,1.408,12.674,12.674,0,0,1-2.855.421c0.053-.366.109-1.059,0.215-1.65a7.375,7.375,0,0,1-1.194.809c-0.3.2-.558,0.34-0.887,0.565a10.779,10.779,0,0,1-1.417.669,3.805,3.805,0,0,1-1.365.22,1.038,1.038,0,0,1-.885-0.532c-0.408-.692.351-4.019,0.583-5.049,0.282-1.2.591-2.188,0.824-3.2,0.364-1.5.887-3.286,1.361-4.668a11.707,11.707,0,0,1,.448-1.22c0.488-.051,1.181-0.081,1.848-0.086,0.359,0,.693,0,1,0.016-0.264.656-.58,1.357-0.817,2.032-0.474,1.236-.923,3.014-1.313,4.249-0.235.8-.469,1.688-0.7,2.546-0.1.452-.233,0.925-0.311,1.35a7.434,7.434,0,0,0-.182,1.247c0.024,0.419.43,0.254,0.837,0.046a11.22,11.22,0,0,0,1.809-1.321c0.358-.339.716-0.679,1.075-1.042,0.263-.963.606-2.252,0.871-3.257,0.133-.547.293-1.189,0.454-1.833,0.375-1.586.834-3.378,1.136-4.736a26.456,26.456,0,0,1,2.824-.128A7.512,7.512,0,0,1,494.061,438.521ZM483.336,431.3a57.721,57.721,0,0,1-6.832,1.041,36.194,36.194,0,0,1,.455-3.638,24.158,24.158,0,0,1,.671-2.587c0.438-1.736.885-3.468,1.388-5.19,0.506-2.052,1.867-6.57,2.527-8.543a54.211,54.211,0,0,1,2.078-5.672,30.57,30.57,0,0,1,4.927-.477c-0.277.714-.446,1.206-0.664,1.775a123.923,123.923,0,0,0-4.31,13.18c-0.653,2.277-1.15,4.368-1.452,6.017a24.585,24.585,0,0,0,5.678-1.369c0.963-.322,1.88-0.563,2.8-0.885a29.342,29.342,0,0,1-.115,4.284A44,44,0,0,1,483.336,431.3Zm-5.9-20.239a13.4,13.4,0,0,0-.753,2.185c-0.827,2.828-1.439,5.668-2.24,8.611-0.89,2.983-1.4,6-2.139,9.048-1.878.375-4.149,0.675-5.286,0.806,0.138-.658.409-1.4,0.549-1.974,0.645-2.383,1.439-4.716,2.033-7.034,0.747-3.011,1.569-5.955,2.431-8.848,0.221-.832.493-1.7,0.721-2.523,0.391-1.293.784-2.5,1.1-3.767,0.071-.348.19-0.731,0.266-1.114,1.3-.142,3.3-0.34,4.932-0.409-0.124.415-.291,0.831-0.411,1.212C478.324,408.475,477.937,409.51,477.437,411.063Zm-11.084,6.118c-0.105.446-.254,0.891-0.358,1.339-0.258,1.057-.557,2.16-0.761,3.185a38.216,38.216,0,0,0-1,8.662c-0.484.25-1.143,0.46-1.451,0.627-0.571.211-.878,0.254-1.493,0.466-0.878.3-1.625,0.511-2.548,0.812-0.3-1.842-.112-2.85-0.4-4.992a22.277,22.277,0,0,0-.579-3.029c-0.165-.8-0.327-1.77-0.536-2.574a15.072,15.072,0,0,0-1.319-3.487q-0.216.813-.43,1.63c-0.522,1.97-.766,3.958-1.226,5.991-0.413,1.78-.733,3.61-1.092,5.914-0.617.133-1.279,0.309-1.984,0.444-1.059.181-2.119,0.321-3.18,0.463a10.2,10.2,0,0,1,.354-1.955c0.085-.489,1.78-6.868,1.922-7.541,0.408-1.669.866-3.329,1.24-4.9,0.139-.509.189-1.02,0.33-1.526,0.335-1.908.68-3.847,0.942-5.738,0.1-.715.162-1.388,0.268-2.1,0-.211.058-0.587,0.113-0.963,0.746-.235,1.582-0.336,2.279-0.489,1.394-.266,3.01-0.39,4.346-0.54a39.557,39.557,0,0,0,.246,4.982c0.049,1.115.235,2.239,0.379,3.319,0.156,0.709.227,1.291,0.463,2.335a8.055,8.055,0,0,1,.411,1.213c0.34-1.068.542-1.8,0.746-2.58s0.415-1.674.78-2.927c0.319-1.213.646-2.46,1.025-3.693,0.156-.526.945-3.93,1.32-4.649,0.816,0.055,1.632.068,2.535,0.083,0.814,0.01,1.723-.094,2.57-0.009a52.237,52.237,0,0,0-2.013,5.863C467.694,412.836,467.1,414.917,466.353,417.181ZM450.924,450.8l0.766-.067a2.927,2.927,0,0,0,.01,1.742,2.423,2.423,0,0,0,1.959.565,3.281,3.281,0,0,0,1.967-.851c0.91-.84-1.119-1.759-1.965-2.3a13.666,13.666,0,0,1-2.668-1.942,4.077,4.077,0,0,1-.562-3.452,5.47,5.47,0,0,1,.47-1.3c1.15-2.284,3.891-5.021,6.7-5.086a2.186,2.186,0,0,1,1.64.452,1.712,1.712,0,0,1,.548.9,7.406,7.406,0,0,1-.121,2.791,10.753,10.753,0,0,1-1,2.875,16.826,16.826,0,0,1-2.636-.309c0.129-.306.591-1.671,0.669-1.873a4.064,4.064,0,0,0,.149-1.774c-0.21-.871-2.968,1.791-3.254,2.622-0.778,2.029.167,2.185,1.85,3.423a17.389,17.389,0,0,1,1.736,1.175,6.669,6.669,0,0,1,1.29,1.04,2.084,2.084,0,0,1,.517,1.935,6.446,6.446,0,0,1-3.287,3.618,8.478,8.478,0,0,1-2.423.782c-0.218.044-.468,0.08-0.73,0.106s-0.537.043-.805,0.046a3.95,3.95,0,0,1-1.362-.169,4.106,4.106,0,0,1-.8-0.492,2.646,2.646,0,0,1-1.2-2,4.483,4.483,0,0,1,.238-2.055A11.891,11.891,0,0,1,450.924,450.8Zm10.058-3.641a18.844,18.844,0,0,1,.5-1.995,8.92,8.92,0,0,1,.945-2.305,12.61,12.61,0,0,1,.927-1.3,11.889,11.889,0,0,1,.9-0.978l0.594-.576a4.3,4.3,0,0,1,1.759-1.064,10.167,10.167,0,0,1,1.164-.293,2.787,2.787,0,0,1,1.68.157A3.682,3.682,0,0,1,471.7,441a6.058,6.058,0,0,1,.547,2.521,9.024,9.024,0,0,1-.269,2.593,12.508,12.508,0,0,1-.955,2.534,7.222,7.222,0,0,1-.683,1.077c-0.2.312-.479,0.813-0.706,1.127a7.352,7.352,0,0,1-1.192,1.251c-0.459.354-.791,0.515-1.277,0.828a5.755,5.755,0,0,1-2.725.906,2.934,2.934,0,0,1-2.266-.519,4.736,4.736,0,0,1-.741-0.892,3.986,3.986,0,0,1-.508-0.943,7.2,7.2,0,0,1-.215-2.759C460.785,448.209,460.857,447.7,460.982,447.155Zm2.52,2.544a2.812,2.812,0,0,0,.429,1.066,1.055,1.055,0,0,0,1.431.564,2.821,2.821,0,0,0,1.665-1.069,7.955,7.955,0,0,0,2.328-4.113,7.1,7.1,0,0,0,.147-1,7.988,7.988,0,0,0-.3-2.579,3.761,3.761,0,0,0-.313-0.732,1.391,1.391,0,0,0-1.164-.709,3.143,3.143,0,0,0-1.883,1.069,8.24,8.24,0,0,0-1.639,2.764,13.332,13.332,0,0,0-.531,1.614c-0.1.558-.17,1.138-0.216,1.643A8.773,8.773,0,0,0,463.5,449.7Zm9.49,0.512c0.22-1,.442-2,0.692-3,0.246-1.187.9-3.872,1.212-5.083,0.178-.71.644-2.635,0.984-3.52a15.5,15.5,0,0,1,2.91-.376c-0.132.451-.211,0.759-0.315,1.114-0.628,1.993-1.476,5.175-2.1,7.9-0.326,1.32-.572,2.513-0.717,3.446a15.714,15.714,0,0,0,3.31-.9c0.559-.2,1.094-0.354,1.628-0.551a14.922,14.922,0,0,1,.008,2.384,29.512,29.512,0,0,1-4.161,1.317,39.842,39.842,0,0,1-4,.789,20.492,20.492,0,0,1,.2-2.045A13.957,13.957,0,0,1,472.992,450.211Zm23.27-3.953c0.135-.4.218-0.81,0.328-1.24,0.217-.768.462-1.611,0.681-2.413,0.112-.549.249-1.078,0.335-1.609-0.565.116-1.13,0.255-1.695,0.348-0.308.07-.59,0.14-0.924,0.21,0.036-.667.286-1.872,0.347-2.478,0.361-.117.747-0.187,1.133-0.3,0.309-.071.67-0.164,0.953-0.235,0.592-.117,1.184-0.233,1.775-0.326,1.029-.163,2.007-0.3,3.038-0.51a9.48,9.48,0,0,1,1.62-.16,21.415,21.415,0,0,1-.388,2.518c-0.386.091-.746,0.113-1.106,0.181-0.643.091-1.31,0.158-1.927,0.25-0.086.462-.171,0.9-0.282,1.314-0.3,1.035-.629,2.061-0.879,3.057-0.583,2.284-1.084,4.322-1.612,6.333-0.137.454-.25,0.948-0.362,1.4-0.531.085-1.087,0.129-1.617,0.175-0.354.022-.909,0.09-1.465,0.137,0.029-.15.108-0.342,0.162-0.535C495.046,450.349,495.589,448.368,496.262,446.258Zm7.068,1.543c0.427-1.643.877-3.293,1.327-4.965,0.114-.481.255-0.986,0.368-1.471,0.2-.761.394-1.48,0.54-2.25,0.03-.21.087-0.443,0.118-0.677,0.746-.113,1.906-0.27,2.858-0.334-0.058.258-.141,0.515-0.2,0.749-0.146.748-.341,1.376-0.6,2.3a8.423,8.423,0,0,0-.392,1.291c-0.427,1.655-.752,3.268-1.21,4.9-0.508,1.65-.816,3.274-1.28,4.882-1.1.175-2.416,0.308-3.075,0.366,0.087-.341.251-0.727,0.337-1.028C502.521,450.314,502.989,449.067,503.33,447.8Zm5.15-1.594a17.368,17.368,0,0,1,.567-1.835,8.242,8.242,0,0,1,1.008-2.126,12.525,12.525,0,0,1,.956-1.2,11.705,11.705,0,0,1,.923-0.9c0.211-.184.421-0.369,0.606-0.532a4.3,4.3,0,0,1,1.774-.968,10.337,10.337,0,0,1,1.165-.247,2.822,2.822,0,0,1,1.67.211,3.691,3.691,0,0,1,2.183,2.259,5.955,5.955,0,0,1,.466,2.528,8.524,8.524,0,0,1-.37,2.553,11.311,11.311,0,0,1-1.071,2.424,6.6,6.6,0,0,1-.736,1c-0.218.287-.521,0.749-0.764,1.031A6.583,6.583,0,0,1,515.6,451.5a13.5,13.5,0,0,1-1.312.658,5.6,5.6,0,0,1-2.734.561A3.146,3.146,0,0,1,509.37,452a4.79,4.79,0,0,1-.677-0.89,3.821,3.821,0,0,1-.449-0.91,6.384,6.384,0,0,1-.09-2.557C508.246,447.173,508.337,446.7,508.48,446.207Zm2.369,2.564a2.675,2.675,0,0,0,.369,1.034,1.1,1.1,0,0,0,1.38.66,2.652,2.652,0,0,0,1.7-.863,7.139,7.139,0,0,0,2.507-3.791,6.671,6.671,0,0,0,.187-0.964,7.608,7.608,0,0,0-.2-2.541,3.68,3.68,0,0,0-.288-0.731,1.41,1.41,0,0,0-1.138-.746,3.132,3.132,0,0,0-1.9.953,7.919,7.919,0,0,0-1.72,2.564,12.45,12.45,0,0,0-.585,1.5c-0.119.522-.214,1.063-0.282,1.536A8.019,8.019,0,0,0,510.849,448.771Zm28.749-.42a7.446,7.446,0,0,1,1.274,1.214,2.235,2.235,0,0,1,.459,2.031,5.212,5.212,0,0,1-3.49,3.033,7.832,7.832,0,0,1-2.469.29c-0.22,0-.471-0.014-0.733-0.04s-0.535-.062-0.8-0.111a4.57,4.57,0,0,1-1.337-.412,5.037,5.037,0,0,1-.766-0.6,2.818,2.818,0,0,1-1.1-2.02,3.725,3.725,0,0,1,.31-1.842,12.406,12.406,0,0,1,2.288-.058L534,449.885a2.654,2.654,0,0,0-.06,1.645,2.819,2.819,0,0,0,1.928.851,2.99,2.99,0,0,0,2.011-.5c0.952-.685-1.059-1.9-1.883-2.522a16.816,16.816,0,0,1-2.59-2.192,3.866,3.866,0,0,1-.453-3.33,4.837,4.837,0,0,1,.5-1.2c1.2-2.07,3.985-4.6,6.808-4.538a2.254,2.254,0,0,1,1.643.546,1.838,1.838,0,0,1,.54.946,7.407,7.407,0,0,1-.169,2.831,9.923,9.923,0,0,1-1.076,2.825,18.471,18.471,0,0,1-2.654-.571c0.139-.289.639-1.6,0.721-1.8a3.937,3.937,0,0,0,.189-1.756c-0.194-.873-3.017,1.56-3.326,2.324-0.831,1.9.1,2.125,1.756,3.535A18.429,18.429,0,0,1,539.6,448.351Zm-18.98.269c0.269-.884.561-1.775,0.8-2.628,0.087-.277.123-0.555,0.21-0.833,0.217-1.045.432-2.122,0.593-3.184,0.063-.4.1-0.78,0.163-1.183,0-.119.035-0.332,0.067-0.546,0.418-.159.886-0.245,1.277-0.357,0.781-.2,1.691-0.325,2.446-0.453a25.358,25.358,0,0,0,.181,2.907c0.033,0.646.143,1.292,0.227,1.913,0.091,0.407.132,0.74,0.268,1.337a4.39,4.39,0,0,1,.236.695c0.2-.606.322-1.029,0.44-1.477s0.239-.968.442-1.7c0.177-.713.354-1.453,0.555-2.2,0.087-.309.475-2.382,0.666-2.843,0.467,0.009.934-.006,1.454-0.02a14.39,14.39,0,0,1,1.483-.067c-0.415,1.216-.7,2.428-1.02,3.655-0.292,1.228-.614,2.472-1.047,3.794-0.06.261-.147,0.52-0.208,0.78-0.15.614-.329,1.247-0.455,1.832a23.465,23.465,0,0,0-.7,4.877c-0.294.12-.691,0.209-0.878,0.289-0.344.093-.528,0.1-0.9,0.194-0.529.126-.977,0.212-1.531,0.336-0.132-1.008,0-1.549-.13-2.728a11.168,11.168,0,0,0-.292-1.678c-0.085-.444-0.168-0.982-0.28-1.429a8.022,8.022,0,0,0-.732-1.944c-0.089.3-.177,0.6-0.266,0.9-0.325,1.084-.5,2.165-0.8,3.251-0.275.949-.5,1.917-0.769,3.115-0.365.047-.757,0.115-1.173,0.16-0.624.055-1.245,0.09-1.865,0.125a4.732,4.732,0,0,1,.256-0.988C519.4,452.3,520.529,449,520.618,448.62Z" transform="translate(-448 -350)"/>
</svg>
