<svg xmlns="http://www.w3.org/2000/svg" viewBox="0 0 195.97 138"><path d="M634.4 51.73c1.14 1.12 1.65 2.36 1.09 3.17-.83 1.3-4.01 1.17-6.68-.38a13.2 13.2 0 0 1-.96-.68c-2.78.93-5.56 1.82-8.35 2.7a25.87 25.87 0 0 0-5.27 3.7c-1.5 1.66-7.67 3.83-13.22 6.05l-.88.35 4.22 14.72a5.57 5.57 0 0 1-1.08 4.94 6.38 6.38 0 0 1 3.81 4.26l1.69 7.17a6.02 6.02 0 0 1-1.47 5.29c.32 2.66.67 5.29 1.07 7.87 10.57-5.78 20.25-11.07 23.99-13.14 6.88-3.71 12.14.42 11.58 8.25v.1c-.62 7.36-6 13.86-11.37 16.09-5.62 2.32-27.75 10.94-40.67 17.72-12.98 6.35-33.42 19.92-39.05 23.8a27.88 27.88 0 0 1-9.9 3.84l-.7.12-.7.1q-.7.1-1.4.15a23.45 23.45 0 0 1-2.76.07 16.68 16.68 0 0 1-5.18-.95l-.04-.02-.04-.01c-3.34-1.29-4.92-3.63-4.73-6.2a5.74 5.74 0 0 1 .15-.98 7.02 7.02 0 0 1 .32-.98 8.91 8.91 0 0 1 1.11-1.97 14.79 14.79 0 0 1 4.16-3.68 724.7 724.7 0 0 1 20.18-11.95 7.92 7.92 0 0 1 4.15-8.22l.32-.16c.22-.12.46-.23.69-.32.03-.22.07-.45.12-.67q2.2-9.17 4.23-18.35a7.4 7.4 0 0 1 .67-1.81 5.63 5.63 0 0 1 .13-1.75q-.99-4.59-2.04-9.22a43.6 43.6 0 0 1-.68-5.14c.06-6.57.2-13.15.35-19.73 0 0 .5-6.79 3.62-9.62a7.47 7.47 0 0 1 4.97-4.03l7-1.9-7.31.02a5.75 5.75 0 0 1-5.67-5.49q-.39-9.85-.87-19.6a5.09 5.09 0 0 1 5.43-5.26q10.25.2 20.35.14a5.44 5.44 0 0 1 5.65 5.24c.06 6.25.14 12.57.24 18.92a58.77 58.77 0 0 1 4.79-2.24c4.43-1.9 9.37-3.66 11.8-4.5l4.96-2.41a41.92 41.92 0 0 1 4.22-1.43l5.23-1.32a12.25 12.25 0 0 1 8.67-3.66c5.25-.03 9.76 3.14 9.23 6.87-.39 3.29-4.49 6.05-9.16 6.12Zm-55.77 67.38.17.14c.14.11.28.24.42.38l.13.13a6.2 6.2 0 0 1 1.16 1.65l.14.3.15.38.13.39.06.19h-.01a7.8 7.8 0 0 1 .2 2.84l-.03.22 2.1-1.1 4.77-2.62v-.36l.03-1.54a6.24 6.24 0 0 1 2.53-4.8l-.83-6.28-2.61.6a3.9 3.9 0 0 1-.74.88q-3.73 3.28-7.45 6.61l-.45 1.9.13.1Zm11.96-81.9a3.52 3.52 0 0 0-3.64-3.38q-8.2.05-16.48-.08a3.3 3.3 0 0 0-3.48 3.4q.34 7.92.62 15.92a3.67 3.67 0 0 0 3.64 3.5q8.05.02 16.1-.07a3.48 3.48 0 0 0 3.48-3.51l-.24-15.77Zm-3.93 17.08-4.68.04a1.81 1.81 0 0 1-1.83-1.76 1.74 1.74 0 0 1 1.75-1.77l4.7-.03a1.8 1.8 0 0 1 1.82 1.73 1.76 1.76 0 0 1-1.76 1.79Zm-2.74-14.09q-6.12.03-12.28-.04a1.9 1.9 0 0 1-1.88-1.77 1.69 1.69 0 0 1 1.76-1.73q6.19.07 12.33.06a1.81 1.81 0 0 1 1.85 1.73 1.75 1.75 0 0 1-1.78 1.75Zm-12.18 2.23q3.76.04 7.52.04a1.83 1.83 0 0 1 1.85 1.75 1.73 1.73 0 0 1-1.77 1.75l-7.49-.02a1.88 1.88 0 0 1-1.86-1.77 1.7 1.7 0 0 1 1.75-1.74Zm-24.36 54.12c-.1.48-.22.95-.3 1.43-.23 1.12-.49 2.29-.67 3.37a45.64 45.64 0 0 0-.85 9.02c-.48.26-1.14.46-1.45.63-.57.21-.88.25-1.5.46-.87.29-1.62.49-2.54.78-.29-1.87-.1-2.88-.4-5.05a22.38 22.38 0 0 0-.6-3.05c-.16-.8-.33-1.77-.55-2.58a14.8 14.8 0 0 0-1.33-3.44l-.4 1.65c-.48 2-.71 3.97-1.16 6-.41 1.77-.73 3.57-1.11 5.83-.61.12-1.27.28-1.97.4-1.05.16-2.1.27-3.14.4a9.6 9.6 0 0 1 .38-1.87c.1-.45 1.82-6.62 1.95-7.3.4-1.63.85-3.27 1.2-4.82.14-.5.19-1 .32-1.51.31-1.89.62-3.82.85-5.7.09-.71.13-1.38.22-2.1 0-.2.05-.58.1-.95.68-.32 1.45-.52 2.1-.76 1.29-.44 2.8-.76 4.05-1.07a46.03 46.03 0 0 0 .44 5.1c.08 1.14.3 2.28.47 3.38.17.72.26 1.32.52 2.38a8.35 8.35 0 0 1 .43 1.23c.31-1.12.48-1.9.66-2.7s.35-1.76.65-3.1c.26-1.29.52-2.62.82-3.96.13-.56.7-4.26 1-5.1.78-.03 1.57-.12 2.45-.2a23.7 23.7 0 0 1 2.5-.3c-.67 2.2-1.1 4.38-1.58 6.6-.43 2.21-.9 4.47-1.56 6.9Zm-18.1-7.7c-2.1.5-4.84 1.2-7.32 1.82a5.72 5.72 0 0 0-.19.81c-.46 1.83-1.02 4.29-1.48 6.09l-.14.74 2.29-.5c1.6-.35 3.4-.72 5.05-1.04a26.6 26.6 0 0 1-.84 4.77c-.86.18-1.73.35-2.29.44-1.3.22-2.64.4-3.98.66a11 11 0 0 0-1.56.38l-.7 2.42c-.14.61-.28 1.18-.38 1.75 1.7-.37 3.09-.62 4.7-.95 1.82-.38 3.9-.89 5.69-1.23a53.7 53.7 0 0 1-.93 4.47c-.7.13-1.61.29-1.96.37-2.18.49-4.36.73-6.49 1.3-.65.15-2.09.31-4.48.75-.6.12-1.44.32-2.35.48.1-.64.25-1.33.4-2.02.1-.44.27-.88.37-1.33.7-2.18 1.48-4.63 2.04-6.87.42-1.5.84-2.97 1.22-4.47a27.02 27.02 0 0 0 .62-2.76l.72-3.08c-.52.14-1.12.32-1.67.41a18.38 18.38 0 0 1 .72-4.47c.35-.09.6-.22.86-.3.72-.2 1.2-.33 1.92-.48.68-.18 1.27-.33 1.95-.48.81-.2 1.62-.39 2.43-.63 2.21-.53 6.38-1.76 8.17-2.03a31.93 31.93 0 0 1-.55 4.62c-.6.11-1.24.21-1.84.36Zm-18.87 7.32a27.96 27.96 0 0 1-4.3-.65c.23-.48 1.08-2.63 1.22-2.95a6.31 6.31 0 0 0 .38-2.79c-.27-1.35-4.98 2.71-5.51 3.98-1.43 3.13.1 3.43 2.79 5.56a27.58 27.58 0 0 1 2.78 2.06 11.08 11.08 0 0 1 2.06 1.84 3.54 3.54 0 0 1 .75 3.27c-.61 2.27-3.04 4.4-5.62 5.48a12.8 12.8 0 0 1-4 .84 11.1 11.1 0 0 1-4.7-.55 7.58 7.58 0 0 1-1.28-.92 4.54 4.54 0 0 1-1.87-3.31 6.5 6.5 0 0 1 .48-3.16 20.64 20.64 0 0 1 3.77-.34h1.26c-.25 1-.41 2.33-.08 2.77a4.25 4.25 0 0 0 3.17 1.2 5.07 5.07 0 0 0 3.27-1.1c1.54-1.25-1.74-3.01-3.1-3.96-1.68-1.32-3-1.9-4.24-3.38-1.2-1.35-1.15-3.6-.67-5.42a8.07 8.07 0 0 1 .87-1.96c2.07-3.42 6.8-7.47 11.33-7.65a3.48 3.48 0 0 1 2.61.68 2.48 2.48 0 0 1 .83 1.4c.33 1.23-.12 2.97-.38 4.44a17.6 17.6 0 0 1-1.82 4.62Zm-16.35 22.35c-.25 1.02-.49 1.74-.7 2.48-.24.8-.49 1.8-.73 2.76-.16.62-.32 1.2-.45 1.75-.51 1.99-.68 3.46-1.09 5.38a13.75 13.75 0 0 0-.14 1.4 12.67 12.67 0 0 1-2.85.43c.05-.37.1-1.06.21-1.65a7.38 7.38 0 0 1-1.2.8l-.88.57a10.78 10.78 0 0 1-1.42.67 3.8 3.8 0 0 1-1.36.22 1.04 1.04 0 0 1-.89-.53c-.4-.7.35-4.02.59-5.05.28-1.2.59-2.19.82-3.2.36-1.5.89-3.28 1.36-4.67a11.7 11.7 0 0 1 .45-1.22c.49-.05 1.18-.08 1.85-.08l1 .01c-.27.66-.58 1.36-.82 2.04-.47 1.23-.92 3.01-1.31 4.24-.24.8-.47 1.7-.7 2.55-.1.45-.24.93-.31 1.35a7.43 7.43 0 0 0-.19 1.25c.03.42.43.25.84.04a11.22 11.22 0 0 0 1.81-1.32c.36-.34.72-.68 1.07-1.04a424.8 424.8 0 0 0 1.33-5.09c.37-1.59.83-3.38 1.14-4.74a26.46 26.46 0 0 1 2.82-.12 7.51 7.51 0 0 1-.25.77Zm-10.72-7.22a57.72 57.72 0 0 1-6.84 1.04 36.2 36.2 0 0 1 .46-3.64 24.16 24.16 0 0 1 .67-2.58c.44-1.74.89-3.47 1.39-5.2.5-2.05 1.86-6.56 2.52-8.54a54.16 54.16 0 0 1 2.08-5.67 30.43 30.43 0 0 1 4.93-.48c-.28.72-.45 1.21-.66 1.78a123.93 123.93 0 0 0-4.31 13.18 65.44 65.44 0 0 0-1.46 6.02 24.59 24.59 0 0 0 5.68-1.37c.96-.33 1.88-.57 2.8-.89a29.34 29.34 0 0 1-.11 4.29 44 44 0 0 1-7.15 2.06Zm-5.9-20.24a13.43 13.43 0 0 0-.76 2.19c-.82 2.82-1.44 5.66-2.24 8.6-.89 2.99-1.4 6-2.14 9.06-1.87.37-4.14.67-5.28.8.14-.66.4-1.4.55-1.97.64-2.39 1.44-4.72 2.03-7.04.75-3 1.57-5.95 2.43-8.84.22-.84.5-1.7.72-2.53.4-1.3.79-2.5 1.1-3.77.07-.34.2-.73.27-1.1 1.3-.15 3.3-.35 4.93-.42-.12.42-.3.83-.41 1.21-.32 1.23-.7 2.26-1.2 3.81Zm-11.09 6.12c-.1.44-.25.89-.36 1.34-.25 1.05-.55 2.16-.76 3.18a38.22 38.22 0 0 0-1 8.66c-.48.25-1.14.46-1.45.63-.57.21-.88.26-1.5.47-.87.3-1.62.5-2.54.81-.3-1.84-.11-2.85-.4-5a22.28 22.28 0 0 0-.58-3.02c-.16-.8-.32-1.77-.53-2.58a15.1 15.1 0 0 0-1.32-3.48l-.43 1.63c-.53 1.97-.77 3.96-1.23 5.99a81.03 81.03 0 0 0-1.1 5.91c-.6.14-1.27.31-1.97.45-1.06.18-2.12.32-3.18.46a10.2 10.2 0 0 1 .35-1.96c.08-.48 1.78-6.86 1.92-7.54.4-1.67.87-3.33 1.24-4.9.14-.5.19-1.02.33-1.52.34-1.91.68-3.85.94-5.74l.27-2.1c0-.21.06-.59.11-.96.75-.24 1.59-.34 2.28-.5 1.4-.26 3.01-.38 4.35-.53a39.55 39.55 0 0 0 .24 4.98c.05 1.11.24 2.24.38 3.32.16.7.23 1.29.47 2.33a8.07 8.07 0 0 1 .4 1.22c.35-1.07.55-1.8.75-2.58s.42-1.68.78-2.93c.32-1.21.65-2.46 1.03-3.7.15-.52.94-3.92 1.32-4.64.81.05 1.63.07 2.53.08.82.01 1.73-.1 2.57 0a52.27 52.27 0 0 0-2 5.86c-.57 2.02-1.16 4.1-1.9 6.36Zm-15.43 33.62.77-.07a2.93 2.93 0 0 0 .01 1.75 2.42 2.42 0 0 0 1.96.56 3.28 3.28 0 0 0 1.97-.85c.9-.84-1.12-1.76-1.97-2.3a13.67 13.67 0 0 1-2.67-1.94 4.08 4.08 0 0 1-.56-3.46 5.47 5.47 0 0 1 .47-1.3c1.15-2.28 3.9-5.02 6.7-5.08a2.19 2.19 0 0 1 1.64.45 1.71 1.71 0 0 1 .55.9 7.4 7.4 0 0 1-.12 2.8 10.75 10.75 0 0 1-1 2.87 16.83 16.83 0 0 1-2.64-.31c.13-.3.6-1.67.67-1.87a4.06 4.06 0 0 0 .15-1.78c-.21-.87-2.97 1.8-3.25 2.62-.78 2.03.16 2.19 1.85 3.43a17.39 17.39 0 0 1 1.73 1.17 6.67 6.67 0 0 1 1.3 1.04 2.08 2.08 0 0 1 .5 1.94 6.45 6.45 0 0 1-3.28 3.61 8.48 8.48 0 0 1-2.42.79 7.5 7.5 0 0 1-1.54.15 3.95 3.95 0 0 1-1.36-.17 4.1 4.1 0 0 1-.8-.5 2.65 2.65 0 0 1-1.2-2 4.48 4.48 0 0 1 .24-2.05 11.9 11.9 0 0 1 2.3-.4Zm10.06-3.64a18.84 18.84 0 0 1 .5-2 8.92 8.92 0 0 1 .95-2.3 12.61 12.61 0 0 1 .92-1.3 11.89 11.89 0 0 1 .9-.98l.6-.57a4.3 4.3 0 0 1 1.76-1.07 10.17 10.17 0 0 1 1.16-.3 2.79 2.79 0 0 1 1.68.17 3.68 3.68 0 0 1 2.25 2.19 6.06 6.06 0 0 1 .55 2.52 9.02 9.02 0 0 1-.27 2.6 12.5 12.5 0 0 1-.96 2.53 7.22 7.22 0 0 1-.68 1.07c-.2.32-.48.82-.7 1.13a7.35 7.35 0 0 1-1.2 1.25c-.46.36-.79.52-1.27.83a5.75 5.75 0 0 1-2.73.9 2.93 2.93 0 0 1-2.27-.51 4.74 4.74 0 0 1-.74-.9 3.99 3.99 0 0 1-.5-.94 7.2 7.2 0 0 1-.22-2.76c.08-.51.15-1.02.27-1.56Zm2.52 2.54a2.81 2.81 0 0 0 .43 1.07 1.05 1.05 0 0 0 1.43.56 2.82 2.82 0 0 0 1.67-1.07 7.96 7.96 0 0 0 2.32-4.1 7.1 7.1 0 0 0 .15-1 7.99 7.99 0 0 0-.3-2.59 3.76 3.76 0 0 0-.31-.73 1.4 1.4 0 0 0-1.17-.7 3.14 3.14 0 0 0-1.88 1.06 8.24 8.24 0 0 0-1.64 2.76 13.33 13.33 0 0 0-.53 1.62c-.1.56-.17 1.14-.21 1.64a8.77 8.77 0 0 0 .04 1.48Zm9.5.52c.21-1 .43-2 .68-3 .25-1.2.9-3.88 1.22-5.09.17-.7.64-2.63.98-3.52a15.5 15.5 0 0 1 2.91-.37l-.32 1.11a115.03 115.03 0 0 0-2.81 11.35 15.71 15.71 0 0 0 3.3-.9c.57-.2 1.1-.35 1.64-.55a14.92 14.92 0 0 1 0 2.38 29.51 29.51 0 0 1-4.16 1.32 39.84 39.84 0 0 1-4 .79 20.5 20.5 0 0 1 .2-2.04 13.96 13.96 0 0 1 .35-1.49Zm23.26-3.96c.14-.4.22-.8.33-1.24l.68-2.41c.11-.55.25-1.08.34-1.61-.57.12-1.13.26-1.7.35-.3.07-.59.14-.92.2.03-.66.28-1.86.34-2.47.36-.12.75-.19 1.14-.3l.95-.23c.6-.12 1.18-.24 1.77-.33 1.03-.16 2.01-.3 3.04-.51a9.48 9.48 0 0 1 1.62-.16 21.41 21.41 0 0 1-.39 2.52c-.38.09-.74.11-1.1.18l-1.93.25c-.08.46-.17.9-.28 1.31-.3 1.04-.63 2.06-.88 3.06-.58 2.28-1.08 4.32-1.61 6.33-.14.46-.25.95-.36 1.4-.53.09-1.09.13-1.62.18-.35.02-.9.09-1.47.13.03-.15.11-.34.17-.53.67-2.03 1.2-4.01 1.88-6.12Zm7.07 1.54 1.33-4.96.36-1.47c.2-.76.4-1.48.54-2.25.03-.21.1-.44.12-.68.75-.11 1.9-.27 2.86-.33l-.2.75c-.15.74-.34 1.37-.6 2.3a8.42 8.42 0 0 0-.4 1.29c-.42 1.65-.74 3.27-1.2 4.9-.5 1.65-.82 3.27-1.28 4.88-1.1.17-2.42.3-3.08.37.1-.34.26-.73.34-1.03.4-1.26.87-2.5 1.21-3.77Zm5.15-1.59a17.37 17.37 0 0 1 .57-1.83 8.24 8.24 0 0 1 1-2.13 12.53 12.53 0 0 1 .96-1.2 11.7 11.7 0 0 1 .92-.9l.61-.53a4.3 4.3 0 0 1 1.77-.97 10.34 10.34 0 0 1 1.17-.25 2.82 2.82 0 0 1 1.67.21 3.7 3.7 0 0 1 2.18 2.26 5.96 5.96 0 0 1 .47 2.53 8.52 8.52 0 0 1-.37 2.55 11.31 11.31 0 0 1-1.07 2.43 6.6 6.6 0 0 1-.74 1c-.22.29-.52.75-.76 1.03a6.58 6.58 0 0 1-1.26 1.09 13.5 13.5 0 0 1-1.31.66 5.6 5.6 0 0 1-2.74.56 3.15 3.15 0 0 1-2.18-.72 4.79 4.79 0 0 1-.68-.89 3.82 3.82 0 0 1-.45-.91 6.38 6.38 0 0 1-.09-2.56c.1-.47.19-.94.33-1.43Zm2.37 2.57a2.67 2.67 0 0 0 .37 1.03 1.1 1.1 0 0 0 1.38.66 2.65 2.65 0 0 0 1.7-.86 7.14 7.14 0 0 0 2.5-3.8 6.67 6.67 0 0 0 .2-.96 7.6 7.6 0 0 0-.2-2.54 3.68 3.68 0 0 0-.3-.73 1.41 1.41 0 0 0-1.13-.75 3.13 3.13 0 0 0-1.9.96 7.92 7.92 0 0 0-1.72 2.56 12.45 12.45 0 0 0-.59 1.5c-.12.52-.21 1.06-.28 1.54a8.02 8.02 0 0 0-.03 1.38Zm28.75-.42a7.45 7.45 0 0 1 1.27 1.2 2.23 2.23 0 0 1 .46 2.04 5.21 5.21 0 0 1-3.49 3.03 7.83 7.83 0 0 1-2.47.3 7.58 7.58 0 0 1-1.53-.16 4.57 4.57 0 0 1-1.34-.41 5.04 5.04 0 0 1-.76-.6 2.82 2.82 0 0 1-1.1-2.02 3.73 3.73 0 0 1 .3-1.84 12.4 12.4 0 0 1 2.3-.06l.76.04a2.65 2.65 0 0 0-.06 1.65 2.82 2.82 0 0 0 1.93.85 2.99 2.99 0 0 0 2-.5c.96-.68-1.05-1.9-1.87-2.52a16.82 16.82 0 0 1-2.6-2.2 3.87 3.87 0 0 1-.45-3.32 4.84 4.84 0 0 1 .5-1.2c1.2-2.07 3.99-4.6 6.81-4.54a2.25 2.25 0 0 1 1.64.55 1.84 1.84 0 0 1 .54.94 7.4 7.4 0 0 1-.17 2.83 9.92 9.92 0 0 1-1.07 2.83 18.47 18.47 0 0 1-2.66-.57c.14-.3.64-1.6.73-1.8a3.94 3.94 0 0 0 .18-1.76c-.19-.87-3.01 1.56-3.32 2.32-.83 1.9.1 2.13 1.75 3.54a18.43 18.43 0 0 1 1.72 1.37Zm-18.98.26c.27-.88.56-1.77.8-2.62.08-.28.12-.56.2-.84.22-1.04.44-2.12.6-3.18l.16-1.18c0-.12.04-.34.07-.55.42-.16.89-.24 1.28-.36.78-.2 1.69-.32 2.44-.45a25.36 25.36 0 0 0 .19 2.9c.03.65.14 1.3.22 1.92.1.4.13.74.27 1.34a4.39 4.39 0 0 1 .24.7c.2-.61.32-1.04.44-1.48s.24-.97.44-1.7c.18-.72.35-1.46.55-2.2.09-.31.48-2.39.67-2.85.47.01.93 0 1.45-.02a14.39 14.39 0 0 1 1.49-.07c-.42 1.22-.7 2.43-1.02 3.66-.3 1.23-.62 2.47-1.05 3.8-.06.25-.15.51-.2.77-.16.62-.34 1.25-.46 1.84a23.46 23.46 0 0 0-.7 4.87c-.3.12-.7.21-.88.3-.35.08-.53.1-.9.19-.53.12-.98.2-1.53.33-.14-1 0-1.55-.13-2.73a11.17 11.17 0 0 0-.3-1.67c-.08-.45-.16-.99-.28-1.43a8.02 8.02 0 0 0-.73-1.95l-.26.9c-.33 1.09-.5 2.17-.8 3.25-.28.95-.5 1.92-.77 3.12l-1.17.16-1.87.12a4.73 4.73 0 0 1 .26-.98c.06-.23 1.19-3.53 1.28-3.91Z" transform="translate(-448 -30)" style="fill-rule:evenodd"/></svg>